# xmcd
#
# Track frame offsets:
#	150
#	17977
#	45344
#	65348
#	92003
#	113030
#	131604
#	148596
#	165953
#	187076
#	210329
#	226528
#	241327
#	264548
#
# Disc length: 3695 seconds
#
# Revision: 0
# Processed by: cddbd v1.5.2PL0 Copyright (c) Steve Scherf et al.
# Submitted via: EasyCDDAExtractor 12.0.0.1
#
DISCID=b10e6d0e
DTITLE=Various Artist - Red Hot Audiophile 2008
DYEAR=2008
DGENRE=
TTITLE0=Kirsti Huke - Wish You Were Here
TTITLE1=Chie Ayado - Will You Still Love Me Tomorrow
TTITLE2=Tata - When Will I See You Again
TTITLE3=Akapelleando - Hotel California
TTITLE4=Carmen Cuesta-Loeb - Suddenly Love
TTITLE5=George Garzone and Trio Da Paz - Choro
TTITLE6=Lisa Wahlandt and Mulo Francel - Close To You
TTITLE7=Eva Taylo - Everybody Loves My Baby
TTITLE8=Svante Thuresson and Kathrine Madsen - Send In The Clowns
TTITLE9=Nicki Parrott - Cry Me A River
TTITLE10=Kari Bremnes - Stejemelause Dogn
TTITLE11=Stefanie Schlesinger - You Don't Know What Love Is
TTITLE12=Robert Wolf and Fang Kammerlander - Cinema Paradiso
TTITLE13=Thomas Christian Ensemble - Wien Bleibt Wien, March
EXTD=
EXTT0=
EXTT1=
EXTT2=
EXTT3=
EXTT4=
EXTT5=
EXTT6=
EXTT7=
EXTT8=
EXTT9=
EXTT10=
EXTT11=
EXTT12=
EXTT13=
PLAYORDER=
